<mxfile host="app.diagrams.net" modified="2023-08-29T15:26:32.396Z" agent="Mozilla/5.0 (Windows NT 10.0; Win64; x64) AppleWebKit/537.36 (KHTML, like Gecko) Chrome/116.0.0.0 Safari/537.36" etag="qlooV5U-_O3TPDq2J5Hh" version="21.6.9" type="github">
  <diagram name="Pagina-1" id="Rz11SaxyFHFlV68xUCTk">
    <mxGraphModel dx="2200" dy="765" grid="1" gridSize="10" guides="1" tooltips="1" connect="1" arrows="1" fold="1" page="0" pageScale="1" pageWidth="827" pageHeight="1169" math="0" shadow="0">
      <root>
        <mxCell id="0" />
        <mxCell id="1" parent="0" />
        <mxCell id="YbO449KEMZVcwZ-ZlikX-4" value="ExpressJs &lt;br style=&quot;font-size: 24px;&quot;&gt;Backend" style="rounded=1;whiteSpace=wrap;html=1;fontSize=24;gradientColor=none;fillColor=none;verticalAlign=bottom;align=right;spacing=40;" parent="1" vertex="1">
          <mxGeometry x="-760" y="60" width="1120" height="540" as="geometry" />
        </mxCell>
        <mxCell id="YbO449KEMZVcwZ-ZlikX-1" value="Database" style="shape=cylinder3;whiteSpace=wrap;html=1;boundedLbl=1;backgroundOutline=1;size=15;fontSize=16;" parent="1" vertex="1">
          <mxGeometry x="-640" y="440" width="93" height="80" as="geometry" />
        </mxCell>
        <mxCell id="YbO449KEMZVcwZ-ZlikX-3" style="edgeStyle=none;curved=1;rounded=0;orthogonalLoop=1;jettySize=auto;html=1;exitX=0.5;exitY=1;exitDx=0;exitDy=0;exitPerimeter=0;fontSize=12;startSize=8;endSize=8;" parent="1" source="YbO449KEMZVcwZ-ZlikX-1" target="YbO449KEMZVcwZ-ZlikX-1" edge="1">
          <mxGeometry relative="1" as="geometry" />
        </mxCell>
        <mxCell id="YbO449KEMZVcwZ-ZlikX-18" style="edgeStyle=none;curved=1;rounded=0;orthogonalLoop=1;jettySize=auto;html=1;exitX=0.5;exitY=1;exitDx=0;exitDy=0;exitPerimeter=0;fontSize=12;startSize=8;endSize=8;" parent="1" source="YbO449KEMZVcwZ-ZlikX-1" target="YbO449KEMZVcwZ-ZlikX-1" edge="1">
          <mxGeometry relative="1" as="geometry" />
        </mxCell>
        <mxCell id="HKBm9vPMXq22ixOpHGuA-25" value="" style="group" vertex="1" connectable="0" parent="1">
          <mxGeometry x="120" y="160" width="160" height="210" as="geometry" />
        </mxCell>
        <mxCell id="HKBm9vPMXq22ixOpHGuA-22" value="Entities" style="rounded=0;whiteSpace=wrap;html=1;fontSize=16;verticalAlign=top;align=left;spacing=6;spacingLeft=3;fillColor=#fff2cc;strokeColor=#d6b656;fillStyle=auto;" vertex="1" parent="HKBm9vPMXq22ixOpHGuA-25">
          <mxGeometry width="160" height="210" as="geometry" />
        </mxCell>
        <mxCell id="HKBm9vPMXq22ixOpHGuA-23" value="Models" style="rounded=0;whiteSpace=wrap;html=1;fontSize=16;" vertex="1" parent="HKBm9vPMXq22ixOpHGuA-25">
          <mxGeometry x="7.5" y="50" width="145" height="65" as="geometry" />
        </mxCell>
        <mxCell id="HKBm9vPMXq22ixOpHGuA-24" value="Types" style="rounded=0;whiteSpace=wrap;html=1;fontSize=16;" vertex="1" parent="HKBm9vPMXq22ixOpHGuA-25">
          <mxGeometry x="7.5" y="127" width="145" height="65" as="geometry" />
        </mxCell>
        <mxCell id="HKBm9vPMXq22ixOpHGuA-31" value="" style="group" vertex="1" connectable="0" parent="1">
          <mxGeometry x="-120" y="160" width="160" height="370" as="geometry" />
        </mxCell>
        <mxCell id="HKBm9vPMXq22ixOpHGuA-17" value="&lt;font style=&quot;font-size: 15px;&quot;&gt;Use Cases&lt;/font&gt;" style="rounded=0;whiteSpace=wrap;html=1;fillColor=#f8cecc;strokeColor=#b85450;verticalAlign=top;align=left;spacingLeft=5;spacing=4;" vertex="1" parent="HKBm9vPMXq22ixOpHGuA-31">
          <mxGeometry width="160" height="370" as="geometry" />
        </mxCell>
        <mxCell id="HKBm9vPMXq22ixOpHGuA-18" value="Actions" style="rounded=0;whiteSpace=wrap;html=1;fontSize=16;" vertex="1" parent="HKBm9vPMXq22ixOpHGuA-31">
          <mxGeometry x="10" y="50" width="140" height="69" as="geometry" />
        </mxCell>
        <mxCell id="HKBm9vPMXq22ixOpHGuA-19" value="Services" style="rounded=0;whiteSpace=wrap;html=1;fontSize=16;" vertex="1" parent="HKBm9vPMXq22ixOpHGuA-31">
          <mxGeometry x="10" y="130" width="140" height="69" as="geometry" />
        </mxCell>
        <mxCell id="HKBm9vPMXq22ixOpHGuA-20" value="Validation" style="rounded=0;whiteSpace=wrap;html=1;fontSize=16;" vertex="1" parent="HKBm9vPMXq22ixOpHGuA-31">
          <mxGeometry x="10" y="210" width="140" height="69" as="geometry" />
        </mxCell>
        <mxCell id="HKBm9vPMXq22ixOpHGuA-30" value="Utilities" style="rounded=0;whiteSpace=wrap;html=1;fontSize=16;" vertex="1" parent="HKBm9vPMXq22ixOpHGuA-31">
          <mxGeometry x="10" y="290" width="140" height="69" as="geometry" />
        </mxCell>
        <mxCell id="HKBm9vPMXq22ixOpHGuA-32" value="" style="group" vertex="1" connectable="0" parent="1">
          <mxGeometry x="-680" y="160" width="160" height="230" as="geometry" />
        </mxCell>
        <mxCell id="YbO449KEMZVcwZ-ZlikX-31" value="Frameworks and Drivers" style="rounded=0;whiteSpace=wrap;html=1;fontSize=16;verticalAlign=top;align=left;spacing=6;spacingLeft=3;fillColor=#dae8fc;strokeColor=#6c8ebf;fillStyle=auto;gradientColor=none;" parent="HKBm9vPMXq22ixOpHGuA-32" vertex="1">
          <mxGeometry width="160" height="230" as="geometry" />
        </mxCell>
        <mxCell id="YbO449KEMZVcwZ-ZlikX-32" value="Config" style="rounded=0;whiteSpace=wrap;html=1;fontSize=16;" parent="HKBm9vPMXq22ixOpHGuA-32" vertex="1">
          <mxGeometry x="7.5" y="149" width="145" height="65" as="geometry" />
        </mxCell>
        <mxCell id="HKBm9vPMXq22ixOpHGuA-8" value="Server &lt;br&gt;(index.ts)" style="rounded=0;whiteSpace=wrap;html=1;fontSize=16;" vertex="1" parent="HKBm9vPMXq22ixOpHGuA-32">
          <mxGeometry x="7.5" y="72.5" width="145" height="65" as="geometry" />
        </mxCell>
        <mxCell id="HKBm9vPMXq22ixOpHGuA-33" style="edgeStyle=orthogonalEdgeStyle;rounded=0;orthogonalLoop=1;jettySize=auto;html=1;exitX=0.5;exitY=1;exitDx=0;exitDy=0;" edge="1" parent="1" source="YbO449KEMZVcwZ-ZlikX-4" target="YbO449KEMZVcwZ-ZlikX-4">
          <mxGeometry relative="1" as="geometry" />
        </mxCell>
        <mxCell id="HKBm9vPMXq22ixOpHGuA-41" value="" style="group" vertex="1" connectable="0" parent="1">
          <mxGeometry x="-440" y="160" width="240" height="370" as="geometry" />
        </mxCell>
        <mxCell id="HKBm9vPMXq22ixOpHGuA-44" value="" style="group" vertex="1" connectable="0" parent="HKBm9vPMXq22ixOpHGuA-41">
          <mxGeometry width="240" height="370" as="geometry" />
        </mxCell>
        <mxCell id="HKBm9vPMXq22ixOpHGuA-13" value="&lt;font style=&quot;font-size: 15px;&quot;&gt;Interface Adapters&lt;/font&gt;" style="rounded=0;whiteSpace=wrap;html=1;fillColor=#d5e8d4;strokeColor=#82b366;verticalAlign=top;align=left;spacingLeft=5;spacing=4;" vertex="1" parent="HKBm9vPMXq22ixOpHGuA-44">
          <mxGeometry width="240" height="370" as="geometry" />
        </mxCell>
        <mxCell id="HKBm9vPMXq22ixOpHGuA-4" value="Websocket&lt;br&gt;Controller" style="rounded=0;whiteSpace=wrap;html=1;fontSize=16;" vertex="1" parent="HKBm9vPMXq22ixOpHGuA-44">
          <mxGeometry x="120" y="130" width="105" height="69" as="geometry" />
        </mxCell>
        <mxCell id="HKBm9vPMXq22ixOpHGuA-11" value="Routers" style="rounded=0;whiteSpace=wrap;html=1;fontSize=16;" vertex="1" parent="HKBm9vPMXq22ixOpHGuA-44">
          <mxGeometry x="30" y="50" width="80" height="149" as="geometry" />
        </mxCell>
        <mxCell id="HKBm9vPMXq22ixOpHGuA-12" value="Middleware" style="rounded=0;whiteSpace=wrap;html=1;fontSize=16;" vertex="1" parent="HKBm9vPMXq22ixOpHGuA-44">
          <mxGeometry x="15" y="230" width="210" height="49" as="geometry" />
        </mxCell>
        <mxCell id="HKBm9vPMXq22ixOpHGuA-28" value="Helpers&lt;br&gt;(auth)" style="rounded=0;whiteSpace=wrap;html=1;fontSize=16;" vertex="1" parent="HKBm9vPMXq22ixOpHGuA-44">
          <mxGeometry x="15" y="290" width="210" height="69" as="geometry" />
        </mxCell>
        <mxCell id="HKBm9vPMXq22ixOpHGuA-40" value="Rest&lt;br&gt;Controllers" style="rounded=0;whiteSpace=wrap;html=1;fontSize=16;" vertex="1" parent="HKBm9vPMXq22ixOpHGuA-44">
          <mxGeometry x="120" y="50" width="105" height="69" as="geometry" />
        </mxCell>
        <mxCell id="HKBm9vPMXq22ixOpHGuA-45" style="edgeStyle=orthogonalEdgeStyle;rounded=0;orthogonalLoop=1;jettySize=auto;html=1;exitX=1;exitY=0.5;exitDx=0;exitDy=0;entryX=0;entryY=0.25;entryDx=0;entryDy=0;" edge="1" parent="1" source="HKBm9vPMXq22ixOpHGuA-40" target="HKBm9vPMXq22ixOpHGuA-19">
          <mxGeometry relative="1" as="geometry" />
        </mxCell>
        <mxCell id="HKBm9vPMXq22ixOpHGuA-46" style="edgeStyle=orthogonalEdgeStyle;rounded=0;orthogonalLoop=1;jettySize=auto;html=1;exitX=1;exitY=0.5;exitDx=0;exitDy=0;entryX=0;entryY=0.75;entryDx=0;entryDy=0;" edge="1" parent="1" source="HKBm9vPMXq22ixOpHGuA-4" target="HKBm9vPMXq22ixOpHGuA-19">
          <mxGeometry relative="1" as="geometry" />
        </mxCell>
        <mxCell id="HKBm9vPMXq22ixOpHGuA-47" style="edgeStyle=orthogonalEdgeStyle;rounded=0;orthogonalLoop=1;jettySize=auto;html=1;exitX=1;exitY=0.5;exitDx=0;exitDy=0;entryX=0;entryY=0.25;entryDx=0;entryDy=0;" edge="1" parent="1" source="HKBm9vPMXq22ixOpHGuA-18" target="HKBm9vPMXq22ixOpHGuA-23">
          <mxGeometry relative="1" as="geometry" />
        </mxCell>
        <mxCell id="HKBm9vPMXq22ixOpHGuA-48" style="edgeStyle=orthogonalEdgeStyle;rounded=0;orthogonalLoop=1;jettySize=auto;html=1;exitX=0.5;exitY=1;exitDx=0;exitDy=0;" edge="1" parent="1" source="YbO449KEMZVcwZ-ZlikX-32" target="YbO449KEMZVcwZ-ZlikX-1">
          <mxGeometry relative="1" as="geometry" />
        </mxCell>
        <mxCell id="HKBm9vPMXq22ixOpHGuA-49" style="edgeStyle=orthogonalEdgeStyle;rounded=0;orthogonalLoop=1;jettySize=auto;html=1;exitX=1;exitY=0.25;exitDx=0;exitDy=0;entryX=0.5;entryY=0;entryDx=0;entryDy=0;" edge="1" parent="1" source="HKBm9vPMXq22ixOpHGuA-8" target="HKBm9vPMXq22ixOpHGuA-40">
          <mxGeometry relative="1" as="geometry" />
        </mxCell>
        <mxCell id="HKBm9vPMXq22ixOpHGuA-50" style="edgeStyle=orthogonalEdgeStyle;rounded=0;orthogonalLoop=1;jettySize=auto;html=1;exitX=1;exitY=0.75;exitDx=0;exitDy=0;entryX=0.5;entryY=1;entryDx=0;entryDy=0;" edge="1" parent="1" source="HKBm9vPMXq22ixOpHGuA-8" target="HKBm9vPMXq22ixOpHGuA-4">
          <mxGeometry relative="1" as="geometry" />
        </mxCell>
      </root>
    </mxGraphModel>
  </diagram>
</mxfile>
